<?xml version="1.0" encoding="UTF-8"?>
<svg width="481px" height="481px" viewBox="0 0 481 481" version="1.1" xmlns="http://www.w3.org/2000/svg" xmlns:xlink="http://www.w3.org/1999/xlink">
    <!-- Generator: Sketch 52.5 (67469) - http://www.bohemiancoding.com/sketch -->
    <title>logo</title>
    <desc>Created with Sketch.</desc>
    <g id="Page-1" stroke="none" stroke-width="1" fill="none" fill-rule="evenodd">
        <g id="logo" transform="translate(-100.000000, -100.000000)">
            <g id="coffee-cup" transform="translate(351.000000, 351.000000) rotate(45.000000) translate(-351.000000, -351.000000) translate(95.000000, 111.000000)">
                <path d="M482,240 C482,372.597656 373.597656,480 241,480 C108.402344,480 0,372.597656 0,240 C0,107.398438 108.402344,0 241,0 C373.597656,0 482,107.398438 482,240 Z" id="Path" fill="#FF7816"></path>
                <path d="M482,240 C482,372.597656 373.597656,480 241,480 L241,0 C373.597656,0 482,107.398438 482,240 Z" id="Path" fill="#FF4B00"></path>
                <path d="M482,270 L361,270 L361,210 L482,210 C498.570312,210 512,223.429688 512,240 C512,256.570312 498.570312,270 482,270 Z" id="Path" fill="#D2C5C2"></path>
                <path d="M421,239.398438 C421,338.699219 340.300781,419.398438 241,419.398438 C141.699219,419.398438 61,338.699219 61,239.398438 C61,140.097656 141.699219,59.398438 241,59.398438 C340.300781,59.398438 421,140.097656 421,239.398438 Z" id="Path" fill="#EDE9E8"></path>
                <path d="M421,239.398438 C421,338.699219 340.300781,419.398438 241,419.398438 L241,59.398438 C340.300781,59.398438 421,140.097656 421,239.398438 Z" id="Path" fill="#DFD7D5"></path>
                <path d="M241.5,105 C166.703294,105 106,165.703294 106,240.5 C106,315.025 166.703294,376 241.5,376 C316.296706,376 377,315.025 377,240.5 C377,165.703294 316.296706,105 241.5,105 Z" id="Path" fill="#C4978B"></path>
                <path d="M377,240.5 C377,315.025 316.520703,376 242,376 L242,105 C316.520703,105 377,165.703294 377,240.5 Z" id="Path" fill="#85615A"></path>
                <g id="quote-left" transform="translate(236.000000, 241.000000) rotate(-45.000000) translate(-236.000000, -241.000000) translate(162.000000, 178.000000)" fill="#FFCEBF">
                    <path d="M50.9987595,57.2732972 L31.1655296,57.2732972 C28.8042979,57.2732972 26.7969098,56.4382934 25.1439856,54.767659 C23.4919917,53.0970246 22.6649093,51.0687553 22.6649093,48.6815973 L22.6649093,45.8192646 C22.6649093,39.4949887 24.8788354,34.0963007 29.3063775,29.6213199 C33.7336094,25.1479063 39.0759969,22.9102592 45.3326097,22.9102592 L50.9987595,22.9102592 C52.533219,22.9102592 53.8608304,22.3432465 54.9828341,21.2101614 C56.1042176,20.0764495 56.6649093,18.7346135 56.6649093,17.1833996 L56.6649093,5.72779988 C56.6649093,4.17689948 56.1039075,2.83380971 54.9828341,1.70009776 C53.8611405,0.567953014 52.5335291,0 50.9987595,0 L45.3326097,0 C39.1932212,0 33.3360393,1.20925095 27.7573425,3.62430502 C22.1792659,6.04092629 17.3544639,9.30759644 13.2810756,13.4246289 C9.20799737,17.5397807 5.97688715,22.4165914 3.58619432,28.0550609 C1.19550148,33.6929036 0,39.6144093 0,45.8189512 L0,108.817541 C0,113.592797 1.65199387,117.647455 4.9575322,120.989664 C8.26338064,124.329992 12.2781568,126 17,126 L51.0009304,126 C55.7224634,126 59.7359991,124.329992 63.0421577,120.989664 C66.3470758,117.647455 68,113.592797 68,108.817541 L68,74.455443 C68,69.6811272 66.3470758,65.6264692 63.0399869,62.2839467 C59.7353789,58.9439316 55.7202926,57.2732972 50.9987595,57.2732972 Z" id="Path"></path>
                    <path d="M143.0447,62.2839467 C139.739926,58.9439316 135.725879,57.2732972 131.002869,57.2732972 L111.168954,57.2732972 C108.808844,57.2732972 106.799495,56.4382934 105.149279,54.767659 C103.495651,53.0970246 102.670078,51.0687553 102.670078,48.6815973 L102.670078,45.8192646 C102.670078,39.4949887 104.884115,34.0963007 109.309709,29.6213199 C113.735612,25.1479063 119.077957,22.9102592 125.337985,22.9102592 L131.003179,22.9102592 C132.538025,22.9102592 133.866634,22.3432465 134.987763,21.2101614 C136.108273,20.0764495 136.671164,18.7346135 136.671164,17.1833996 L136.671164,5.72779988 C136.671164,4.17689948 136.108583,2.83380971 134.987763,1.70009776 C133.866944,0.567953014 132.538336,0 131.003179,0 L125.337985,0 C119.194877,0 113.338642,1.20925095 107.758115,3.62430502 C102.180689,6.04092629 97.3571953,9.30759644 93.2836026,13.4246289 C89.21001,17.5397807 85.977187,22.4165914 83.5873046,28.0550609 C81.1971121,33.6929036 80,39.6144093 80,45.8189512 L80,108.817541 C80,113.592797 81.6536274,117.647455 84.9584012,120.989664 C88.2634851,124.329992 92.2775323,126 97.0002326,126 L131.001008,126 C135.724018,126 139.737755,124.329992 143.042529,120.989664 C146.349784,117.647455 148,113.592797 148,108.817541 L148,74.455443 C148.00031,69.6808137 146.349784,65.6264692 143.0447,62.2839467 Z" id="Path"></path>
                </g>
            </g>
        </g>
    </g>
</svg>